<?xml version="1.0" standalone="no"?>
<!DOCTYPE svg PUBLIC "-//W3C//DTD SVG 20010904//EN"
 "http://www.w3.org/TR/2001/REC-SVG-20010904/DTD/svg10.dtd">
<svg version="1.0" xmlns="http://www.w3.org/2000/svg"
 width="275.000000pt" height="183.000000pt" viewBox="0 0 275.000000 183.000000"
 preserveAspectRatio="xMidYMid meet">

<g transform="translate(0.000000,183.000000) scale(0.100000,-0.100000)"
fill="#000000" stroke="none">
<path d="M1425 1374 c-128 -12 -194 -39 -315 -126 -73 -52 -76 -53 -91 -35
-19 26 -79 16 -79 -13 0 -10 5 -22 10 -25 6 -4 7 -11 4 -17 -5 -8 3 -9 27 -4
74 15 169 25 274 30 l110 6 -140 -24 c-178 -29 -278 -57 -363 -100 -141 -72
-197 -134 -229 -257 l-17 -69 -113 0 c-64 0 -114 -4 -118 -10 -19 -30 -105 3
-135 53 -17 27 -20 29 -20 11 0 -47 96 -144 143 -144 21 0 22 -16 1 -24 -51
-20 -97 7 -119 69 -18 51 -19 25 -1 -40 18 -67 46 -123 65 -130 50 -19 807
-50 944 -39 71 6 79 5 101 -15 23 -21 31 -22 159 -19 126 3 137 5 160 26 14
13 30 36 37 51 10 26 17 28 213 63 200 36 202 36 223 17 18 -17 36 -19 142
-19 111 0 124 2 143 21 56 56 85 199 69 342 -8 72 -27 152 -29 124 -1 -5 -13
1 -27 12 -58 46 -94 17 -164 -133 -74 -159 -148 -228 -306 -285 -85 -30 -222
-66 -229 -59 -2 2 -2 14 2 26 4 16 34 37 102 72 53 27 122 70 153 94 49 39
290 306 283 314 -1 1 -85 -36 -186 -84 -101 -47 -216 -101 -256 -119 l-71 -34
-7 37 c-4 20 -13 49 -21 64 -8 15 -14 31 -14 37 0 5 46 18 102 28 l102 18 -50
7 c-90 12 -243 9 -277 -6 -70 -30 -129 -130 -152 -259 -18 -99 -19 -102 -84
-142 -104 -66 -282 -101 -326 -65 -16 13 -10 16 55 32 40 10 97 29 127 43 50
22 193 113 193 121 0 3 -23 -7 -50 -21 -82 -41 -226 -86 -284 -87 -39 -1 -62
4 -83 18 -24 16 -51 19 -205 22 -135 3 -178 7 -178 17 0 18 166 175 235 220
79 52 194 110 270 135 68 22 185 50 185 44 0 -2 -16 -11 -37 -19 -46 -19 -195
-118 -214 -142 -8 -10 4 -4 26 13 72 56 183 116 258 139 69 22 89 24 338 24
252 0 268 1 364 27 184 48 345 22 402 -65 26 -39 30 -34 8 9 -30 58 -114 93
-255 105 -66 6 -86 13 -164 57 -129 74 -151 79 -381 83 -110 2 -218 1 -240 -1z
m606 -145 c15 -28 6 -34 -70 -48 -75 -15 -93 -6 -68 33 16 23 34 29 104 34 14
1 27 -6 34 -19z m439 -259 c21 -39 25 -57 24 -130 -1 -93 -16 -140 -58 -179
-22 -20 -30 -23 -49 -14 -74 34 -90 254 -25 345 16 23 27 28 51 26 26 -2 36
-12 57 -48z m-773 -38 c76 -91 69 -308 -12 -389 -18 -18 -40 -33 -49 -33 -61
0 -110 96 -111 215 0 101 19 167 61 212 28 29 38 34 61 29 16 -4 38 -19 50
-34z m-240 -314 c-33 -82 -148 -102 -507 -88 -129 5 -314 12 -410 16 -192 7
-235 16 -259 54 l-16 24 30 -22 c29 -22 46 -23 400 -38 204 -9 411 -13 460
-11 94 6 210 39 269 77 43 27 48 25 33 -12z"/>
<path d="M2360 959 c-24 -46 -21 -69 10 -69 16 0 20 7 20 33 0 17 3 42 6 55
10 37 -14 25 -36 -19z"/>
<path d="M2420 940 l0 -60 30 0 c36 0 38 16 10 78 -27 59 -40 53 -40 -18z"/>
<path d="M2399 915 c-4 -37 -6 -40 -32 -37 -26 3 -27 2 -15 -17 9 -15 15 -17
26 -9 9 8 16 8 25 -1 9 -10 8 -15 -5 -25 -9 -6 -19 -30 -23 -51 -6 -38 -5 -39
8 -16 l15 25 17 -33 c19 -38 30 -36 15 3 -18 48 -12 70 23 91 l32 20 -35 5
c-32 5 -35 8 -41 45 l-5 40 -5 -40z"/>
<path d="M2333 803 c3 -35 12 -69 20 -77 12 -13 14 -7 13 45 -1 43 -7 64 -20
76 -18 17 -18 16 -13 -44z"/>
<path d="M2450 831 c-23 -18 -24 -22 -13 -63 16 -59 1 -83 -23 -37 l-17 34
-13 -30 c-19 -44 -17 -63 8 -71 38 -12 78 53 91 149 6 42 2 44 -33 18z"/>
<path d="M1607 939 c-9 -5 -27 -28 -38 -51 -17 -33 -18 -42 -7 -50 33 -22 47
-27 52 -20 6 10 20 132 15 132 -2 0 -12 -5 -22 -11z"/>
<path d="M1659 919 c0 -22 -1 -23 -9 -4 -5 12 -6 -1 -3 -35 3 -30 9 -58 12
-63 6 -6 71 10 71 18 0 15 -33 74 -49 89 -21 19 -21 19 -22 -5z"/>
<path d="M1632 842 c-2 -39 -23 -50 -54 -28 -12 9 -25 16 -28 16 -9 0 -12
-137 -5 -181 9 -51 21 -42 36 25 11 50 10 57 -11 93 l-23 38 24 -21 c13 -12
30 -19 36 -17 19 7 29 -28 12 -41 -9 -6 -23 -39 -33 -74 -16 -57 -16 -66 -2
-87 21 -32 52 -40 81 -21 14 9 25 20 25 24 0 5 -14 27 -32 51 l-31 43 -23 -43
c-13 -24 -23 -37 -24 -29 0 19 37 80 49 80 4 0 21 -18 36 -41 25 -39 27 -40
40 -21 30 41 48 188 23 180 -6 -2 -25 -20 -40 -39 l-29 -36 21 -48 c11 -26 19
-50 17 -52 -5 -4 -47 90 -47 104 0 5 18 27 40 48 48 47 50 58 10 43 -41 -14
-58 -5 -63 34 l-4 33 -1 -33z"/>
<path d="M517 1149 c-39 -9 -132 -53 -141 -67 -2 -4 26 7 62 25 39 19 94 36
132 42 47 6 54 9 25 9 -22 0 -57 -4 -78 -9z"/>
<path d="M703 1153 c15 -2 39 -2 55 0 15 2 2 4 -28 4 -30 0 -43 -2 -27 -4z"/>
<path d="M798 1143 c7 -3 -15 -15 -50 -27 -97 -34 -170 -86 -224 -160 -29 -40
-29 -39 45 18 86 66 205 126 306 155 l70 20 -80 0 c-44 -1 -74 -3 -67 -6z"/>
<path d="M334 1048 l-19 -23 23 19 c21 18 27 26 19 26 -2 0 -12 -10 -23 -22z"/>
<path d="M317 959 c-46 -27 -56 -108 -17 -129 23 -12 150 -13 150 -2 0 24 -31
106 -46 123 -19 21 -59 24 -87 8z"/>
<path d="M1024 948 l-19 -23 23 19 c21 18 27 26 19 26 -2 0 -12 -10 -23 -22z"/>
<path d="M1159 947 c-56 -24 -229 -131 -229 -143 0 -11 220 3 265 16 43 13
105 68 105 94 0 23 -37 56 -62 56 -13 0 -48 -11 -79 -23z"/>
</g>
</svg>
